<svg width="15" height="15" viewBox="0 0 15 15" fill="none" xmlns="http://www.w3.org/2000/svg">
<path d="M13.8243 0H1.17563C0.527423 0 0 0.52745 0 1.17638V13.8237C0 14.4721 0.527423 15 1.17563 15H13.8243C14.4726 15 15 14.4721 15 13.8237V1.17638C14.9998 0.52745 14.4726 0 13.8243 0ZM12.218 10.4797C12.6741 10.9364 12.6741 11.6768 12.218 12.1326C11.9899 12.3607 11.6906 12.4752 11.3921 12.4752C11.0932 12.4752 10.7947 12.3607 10.567 12.1326L7.49987 9.06297L4.43269 12.1324C4.205 12.3605 3.90648 12.4751 3.60775 12.4751C3.30885 12.4751 3.01014 12.3605 2.78206 12.1324C2.32585 11.6765 2.32585 10.9362 2.78206 10.4797L5.84822 7.41022L2.78206 4.34027C2.32585 3.88362 2.32585 3.14369 2.78206 2.68761C3.23799 2.23105 3.97647 2.23105 4.43266 2.68761L7.49984 5.75717L10.567 2.68761C11.023 2.23105 11.7618 2.23105 12.2179 2.68761C12.6741 3.14369 12.6741 3.88362 12.2179 4.34027L9.15162 7.41022L12.218 10.4797Z" fill="#D7042A"/>
</svg>
