<svg xmlns="http://www.w3.org/2000/svg" width="150.807" height="40.457" viewBox="0 0 150.807 40.457">
  <g id="Group_3706" data-name="Group 3706" transform="translate(-469.267 -4473)">
    <g id="SVG_file" data-name="SVG file" transform="translate(469.267 4473)">
      <g id="Group_2" data-name="Group 2">
        <path id="Path_1" data-name="Path 1" d="M307.077,309.281a20.352,20.352,0,0,1-18,20.219,2.118,2.118,0,0,1-2.339-2.119h0a2.128,2.128,0,0,1,1.908-2.109,16,16,0,0,0,9.328-4.448,3.98,3.98,0,0,0,1.266-2.761,3.724,3.724,0,0,0-1.112-2.742,3.8,3.8,0,0,0-2.675-1.112,3.741,3.741,0,0,0-2.675,1.112,8.528,8.528,0,0,1-7.114,2.435,8.352,8.352,0,0,1-4.142-1.716,8.536,8.536,0,1,1,11.255-12.789,3.783,3.783,0,1,0,5.35-5.35,15.971,15.971,0,0,0-9.5-4.6,2.126,2.126,0,0,1-1.889-2.109h0a2.123,2.123,0,0,1,2.339-2.119A20.35,20.35,0,0,1,307.077,309.281Z" transform="translate(-271.997 -289.057)" fill="#e5234a"/>
        <path id="Path_2" data-name="Path 2" d="M228.226,376.01a14.723,14.723,0,1,1,10.421-25.128,2.407,2.407,0,0,1-3.4,3.4,9.913,9.913,0,1,0,0,14.016,2.407,2.407,0,1,1,3.4,3.4A14.714,14.714,0,0,1,228.226,376.01Z" transform="translate(-213.5 -341.061)" fill="#e5234a"/>
        <g id="Group_1" data-name="Group 1" transform="translate(10.335 13.512)">
          <path id="Path_3" data-name="Path 3" d="M329.526,439a.787.787,0,0,1,0,1.112,4.769,4.769,0,0,1-2.013,1.208V442.6a.805.805,0,1,1-1.611,0v-1.074a3.984,3.984,0,0,1-.748-.1v1.17a.805.805,0,1,1-1.611,0v-1.812a4.657,4.657,0,0,1-.834-.671,4.814,4.814,0,0,1,0-6.807,5.017,5.017,0,0,1,.834-.671v-1.822a.805.805,0,0,1,1.611,0v1.17a6.647,6.647,0,0,1,.748-.1v-1.083a.805.805,0,1,1,1.611,0v1.285a4.71,4.71,0,0,1,2.013,1.208.786.786,0,0,1-1.112,1.112,3.271,3.271,0,0,0-1.256-.786h0a3.346,3.346,0,0,0-1.035-.163h-.038a3.241,3.241,0,0,0,0,6.481h.038a3.439,3.439,0,0,0,1.035-.163h0a3.2,3.2,0,0,0,1.256-.786A.8.8,0,0,1,329.526,439Z" transform="translate(-321.3 -430)" fill="#fff"/>
        </g>
      </g>
      <path id="Path_4" data-name="Path 4" d="M646.577,382.055H630.816c-4.774,0-5.359,2.1-5.359,5.915s.585,5.887,5.359,5.887h15.761v4.084H630.816c-7.171,0-9.616-3.413-9.616-9.971S623.645,378,630.816,378h15.761Z" transform="translate(-582.113 -369.473)" fill="#e5234a"/>
      <path id="Path_5" data-name="Path 5" d="M927.2,378.1h16.375c7.142,0,9.587,3.413,9.587,9.971s-2.445,9.971-9.587,9.971H927.2Zm16.385,4.046H931.37v11.8h12.214c4.746,0,5.33-2.071,5.33-5.887S948.33,382.146,943.584,382.146Z" transform="translate(-858.776 -369.563)" fill="#e5234a"/>
      <path id="Path_6" data-name="Path 6" d="M1231.745,387.86a4.363,4.363,0,0,0,3.413-4.487c0-1.486-.47-5.273-7.66-5.273h-17a11.353,11.353,0,0,1,2.08,3.758h15.483c2.128,0,3.058.786,3.058,2.1,0,1.4-1.074,2.013-3.058,2.013h-14.678q.086,1.007.086,2.1c0,.556-.019,1.1-.048,1.63h14.927c2.445,0,3.231,1.227,3.231,2.387s-.786,2.186-3.231,2.186H1212.58a11.354,11.354,0,0,1-2.08,3.758h17.4c5.5,0,7.785-2.243,7.785-5.388C1235.685,390.372,1234.487,388.646,1231.745,387.86Z" transform="translate(-1114.915 -369.563)" fill="#fff"/>
      <path id="Path_7" data-name="Path 7" d="M1515.7,378.1h16.375c7.142,0,9.587,3.413,9.587,9.971s-2.445,9.971-9.587,9.971H1515.7Zm16.375,4.046h-12.214v11.8h12.214c4.745,0,5.33-2.071,5.33-5.887S1536.83,382.146,1532.075,382.146Z" transform="translate(-1390.855 -369.563)" fill="#fff"/>
    </g>
    <g id="SVG_file-2" data-name="SVG file" transform="translate(563.652 4481.527)">
      <path id="Path_6-2" data-name="Path 6" d="M1231.745,387.86a4.363,4.363,0,0,0,3.413-4.487c0-1.486-.47-5.273-7.66-5.273h-17a11.353,11.353,0,0,1,2.08,3.758h15.483c2.128,0,3.058.786,3.058,2.1,0,1.4-1.074,2.013-3.058,2.013h-14.678q.086,1.007.086,2.1c0,.556-.019,1.1-.048,1.63h14.927c2.445,0,3.231,1.227,3.231,2.387s-.786,2.186-3.231,2.186H1212.58a11.354,11.354,0,0,1-2.08,3.758h17.4c5.5,0,7.785-2.243,7.785-5.388C1235.685,390.372,1234.487,388.646,1231.745,387.86Z" transform="translate(-1210.5 -378.09)" fill="#1e162d"/>
      <path id="Path_7-2" data-name="Path 7" d="M1515.7,378.1h16.375c7.142,0,9.587,3.413,9.587,9.971s-2.445,9.971-9.587,9.971H1515.7Zm16.375,4.046h-12.214v11.8h12.214c4.745,0,5.33-2.071,5.33-5.887S1536.83,382.146,1532.075,382.146Z" transform="translate(-1487.046 -378.1)" fill="#1e162d"/>
    </g>
  </g>
</svg>
