<svg width="32" height="32" viewBox="0 0 32 32" fill="none" xmlns="http://www.w3.org/2000/svg">
<g clip-path="url(#clip0_2_4)" filter="url(#filter0_d_2_4)">
<path d="M4 11.697C4 14.0111 4.68619 16.2731 5.97181 18.1972C7.25742 20.1212 9.08471 21.6209 11.2226 22.5064C13.3605 23.3919 15.713 23.6236 17.9826 23.1722C20.2521 22.7208 22.3369 21.6064 23.9732 19.9702C25.6094 18.3339 26.7237 16.2491 27.1752 13.9796C27.6266 11.71 27.3949 9.35751 26.5094 7.21961C25.6238 5.08172 24.1242 3.25443 22.2002 1.96882C20.2761 0.683203 18.014 -0.00298965 15.7 -0.00298965C14.1633 -0.00364676 12.6416 0.298534 11.2218 0.886281C9.80202 1.47403 8.51196 2.33582 7.42538 3.4224C6.33881 4.50897 5.47702 5.79903 4.88927 7.21884C4.30152 8.63864 3.99934 10.1604 4 11.697V11.697ZM17.749 11.697L13.143 7.13601C12.9504 6.93027 12.8453 6.65771 12.85 6.37593C12.8546 6.09414 12.9686 5.8252 13.1679 5.62593C13.3672 5.42665 13.6361 5.31264 13.9179 5.30799C14.1997 5.30334 14.4723 5.40841 14.678 5.60101L20.043 10.983C20.241 11.1804 20.3551 11.4467 20.3614 11.7262C20.3678 12.0057 20.2659 12.2769 20.077 12.483L14.791 17.783C14.6915 17.8881 14.572 17.9722 14.4395 18.0303C14.307 18.0885 14.1642 18.1195 14.0195 18.1216C13.8749 18.1237 13.7312 18.0968 13.5971 18.0425C13.463 17.9882 13.3411 17.9076 13.2386 17.8055C13.1361 17.7033 13.0551 17.5817 13.0004 17.4478C12.9457 17.3138 12.9183 17.1703 12.9199 17.0256C12.9215 16.8809 12.9521 16.738 13.0098 16.6053C13.0676 16.4726 13.1513 16.3528 13.256 16.253L17.749 11.697Z" fill="#7689B0"/>
</g>
<defs>
<filter id="filter0_d_2_4" x="0" y="0" width="31.393" height="31.393" filterUnits="userSpaceOnUse" color-interpolation-filters="sRGB">
<feFlood flood-opacity="0" result="BackgroundImageFix"/>
<feColorMatrix in="SourceAlpha" type="matrix" values="0 0 0 0 0 0 0 0 0 0 0 0 0 0 0 0 0 0 127 0" result="hardAlpha"/>
<feOffset dy="4"/>
<feGaussianBlur stdDeviation="2"/>
<feComposite in2="hardAlpha" operator="out"/>
<feColorMatrix type="matrix" values="0 0 0 0 0 0 0 0 0 0 0 0 0 0 0 0 0 0 0.25 0"/>
<feBlend mode="normal" in2="BackgroundImageFix" result="effect1_dropShadow_2_4"/>
<feBlend mode="normal" in="SourceGraphic" in2="effect1_dropShadow_2_4" result="shape"/>
</filter>
<clipPath id="clip0_2_4">
<rect width="23.393" height="23.393" fill="white" transform="translate(4)"/>
</clipPath>
</defs>
</svg>
