<svg xmlns="http://www.w3.org/2000/svg" width="1111.557" height="576.934" viewBox="0 0 1111.557 576.934">
  <g id="Group_3739" data-name="Group 3739" transform="translate(10.458 -2133.651)">
    <g id="Group_3716" data-name="Group 3716" transform="translate(303.352 2166.454)">
      <g id="Group_3715" data-name="Group 3715" transform="translate(0 0)">
        <path id="Path_5610" data-name="Path 5610" d="M289.971,27a272.093,272.093,0,0,1,192.356,79.609l-192.3,192.452Z" transform="translate(-17.926 -27)" fill="#cc0136"/>
        <path id="Path_5611" data-name="Path 5611" d="M482.453,68.338a272.061,272.061,0,0,1,39.628,334.271L290,260.637Z" transform="translate(-17.899 11.424)" fill="#ffe2ea"/>
        <path id="Path_5612" data-name="Path 5612" d="M542.328,310.2A272.061,272.061,0,0,1,268.065,436.748L310.389,168Z" transform="translate(-38.288 104.061)" fill="#ff0144"/>
        <path id="Path_5613" data-name="Path 5613" d="M378.486,457.121C230.168,433.611,128.948,294.373,152.34,146.036l268.74,42.38Z" transform="translate(-148.979 83.645)" fill="#f00058"/>
        <path id="Path_5614" data-name="Path 5614" d="M150.743,193.678a272.059,272.059,0,0,1,36.533-99.185L419.441,236.326Z" transform="translate(-147.34 35.735)" fill="#ff4575"/>
        <path id="Path_5615" data-name="Path 5615" d="M169.75,118.517A272.058,272.058,0,0,1,209.207,68.4L401.774,260.582Z" transform="translate(-129.673 11.479)" fill="#ffafc4"/>
        <path id="Path_5616" data-name="Path 5616" d="M190.3,106.683A272.061,272.061,0,0,1,382.3,27l.378,272.061Z" transform="translate(-110.572 -27)" fill="#ff799d"/>
      </g>
    </g>
    <path id="Path_5110" data-name="Path 5110" d="M2863.039,6373.209h132.423" transform="translate(-2668.192 -4017.42)" fill="none" stroke="#ffafc4" stroke-linecap="round" stroke-width="2"/>
    <path id="Path_5112" data-name="Path 5112" d="M2530.94,6323.5v-65.744H2349.8" transform="translate(-2040.83 -4110.849)" fill="none" stroke="#ffafc4" stroke-linecap="round" stroke-linejoin="round" stroke-width="2"/>
    <path id="Path_5114" data-name="Path 5114" d="M2554.5,6661.508H2412.452v-76.423h-63.279" transform="translate(-2145.654 -4069.233)" fill="none" stroke="#ffafc4" stroke-linecap="round" stroke-linejoin="round" stroke-width="2"/>
    <g id="Ellipse_173" data-name="Ellipse 173" transform="translate(485.222 2206.416)" fill="#ffd7e1" stroke="#800022" stroke-width="1">
      <circle cx="5.39" cy="5.39" r="5.39" stroke="none"/>
      <circle cx="5.39" cy="5.39" r="4.89" fill="none"/>
    </g>
    <g id="Ellipse_179" data-name="Ellipse 179" transform="translate(302.861 2141.736)" fill="#ff4575" stroke="#800022" stroke-width="1">
      <circle cx="5.39" cy="5.39" r="5.39" stroke="none"/>
      <circle cx="5.39" cy="5.39" r="4.89" fill="none"/>
    </g>
    <g id="Ellipse_183" data-name="Ellipse 183" transform="translate(327.27 2350.212)" fill="#ff4575" stroke="#800022" stroke-width="1">
      <circle cx="5.39" cy="5.39" r="5.39" stroke="none"/>
      <circle cx="5.39" cy="5.39" r="4.89" fill="none"/>
    </g>
    <g id="Ellipse_181" data-name="Ellipse 181" transform="translate(197.974 2510.386)" fill="#ff0144" stroke="#800022" stroke-width="1">
      <circle cx="5.39" cy="5.39" r="5.39" stroke="none"/>
      <circle cx="5.39" cy="5.39" r="4.89" fill="none"/>
    </g>
    <g id="Ellipse_175" data-name="Ellipse 175" transform="translate(403.692 2586.744)" fill="#ffd7e1" stroke="#800022" stroke-width="1">
      <circle cx="5.39" cy="5.39" r="5.39" stroke="none"/>
      <circle cx="5.39" cy="5.39" r="4.89" fill="none"/>
    </g>
    <g id="Group_3736" data-name="Group 3736" transform="translate(625.753 2146.904)">
      <path id="Path_5109" data-name="Path 5109" d="M2790.342,6301.988v-66.862h197.687" transform="translate(-2784.645 -6229.623)" fill="none" stroke="#ffafc4" stroke-linecap="round" stroke-linejoin="round" stroke-width="2"/>
      <g id="Ellipse_182" data-name="Ellipse 182" transform="translate(197.633 0)" fill="#ff4575" stroke="#800022" stroke-width="1">
        <circle cx="5.39" cy="5.39" r="5.39" stroke="none"/>
        <circle cx="5.39" cy="5.39" r="4.89" fill="none"/>
      </g>
      <g id="Ellipse_176" data-name="Ellipse 176" transform="translate(0 62.883)" fill="#ffd7e1" stroke="#800022" stroke-width="1">
        <circle cx="5.39" cy="5.39" r="5.39" stroke="none"/>
        <circle cx="5.39" cy="5.39" r="4.89" fill="none"/>
      </g>
    </g>
    <g id="Ellipse_177" data-name="Ellipse 177" transform="translate(189.422 2350.212)" fill="#ffd7e1" stroke="#800022" stroke-width="1">
      <circle cx="5.39" cy="5.39" r="5.39" stroke="none"/>
      <circle cx="5.39" cy="5.39" r="4.89" fill="none"/>
    </g>
    <path id="Path_5608" data-name="Path 5608" d="M2423.587,6447.991h-83.577v-26.759h-48.076" transform="translate(-1575.407 -3793.856)" fill="none" stroke="#ffafc4" stroke-linecap="round" stroke-width="2"/>
    <g id="Ellipse_194" data-name="Ellipse 194" transform="translate(710.863 2621.777)" fill="#ffafc4" stroke="#800022" stroke-width="1">
      <circle cx="5.39" cy="5.39" r="5.39" stroke="none"/>
      <circle cx="5.39" cy="5.39" r="4.89" fill="none"/>
    </g>
    <g id="Ellipse_193" data-name="Ellipse 193" transform="translate(842.918 2648.727)" fill="#ffd7e1" stroke="#800022" stroke-width="1">
      <circle cx="5.39" cy="5.39" r="5.39" stroke="none"/>
      <circle cx="5.39" cy="5.39" r="4.89" fill="none"/>
    </g>
    <text id="_17_000_000" data-name="17,000,000" transform="translate(934.098 2468.647)" fill="#1e162d" font-size="17" font-family="Poppins-Medium, Poppins" font-weight="500"><tspan x="0" y="0">17,000,000</tspan></text>
    <text id="_10_000_000" data-name="10,000,000" transform="translate(292.974 2179.601)" fill="#1e162d" font-size="18" font-family="Poppins-Medium, Poppins" font-weight="500"><tspan x="-95" y="0">10,000,000</tspan></text>
    <text id="_15_000_000" data-name="15,000,000" transform="translate(961.973 2686.705)" fill="#1e162d" font-size="18" font-family="Poppins-Medium, Poppins" font-weight="500"><tspan x="-95" y="0">15,000,000</tspan></text>
    <g id="Group_3713" data-name="Group 3713" transform="translate(79.769 2342.038)">
      <text id="_5_000_000" data-name="5,000,000" transform="translate(2.695 44.95)" fill="#1e162d" font-size="17" font-family="Poppins-Medium, Poppins" font-weight="500"><tspan x="0" y="0">5,000,000</tspan></text>
      <text id="Marketing" transform="translate(0 19)" fill="#ff0144" font-size="18" font-family="Poppins-Medium, Poppins" font-weight="500"><tspan x="0" y="0">Marketing</tspan></text>
    </g>
    <text id="Quarterly_Airdrops" data-name="Quarterly Airdrops" transform="translate(934.098 2442.698)" fill="#ff0144" font-size="18" font-family="Poppins-Medium, Poppins" font-weight="500"><tspan x="0" y="0">Quarterly Airdrops</tspan></text>
    <g id="Group_3737" data-name="Group 3737" transform="translate(774.867 2401.239)">
      <path id="Path_5113" data-name="Path 5113" d="M2423.587,6447.991h-83.577v-26.759h-48.076" transform="translate(-2286.27 -6415.634)" fill="none" stroke="#ffafc4" stroke-linecap="round" stroke-width="2"/>
      <g id="Ellipse_180" data-name="Ellipse 180" transform="translate(0 0)" fill="#ffafc4" stroke="#800022" stroke-width="1">
        <circle cx="5.39" cy="5.39" r="5.39" stroke="none"/>
        <circle cx="5.39" cy="5.39" r="4.89" fill="none"/>
      </g>
      <g id="Ellipse_174" data-name="Ellipse 174" transform="translate(132.055 26.95)" fill="#ffd7e1" stroke="#800022" stroke-width="1">
        <circle cx="5.39" cy="5.39" r="5.39" stroke="none"/>
        <circle cx="5.39" cy="5.39" r="4.89" fill="none"/>
      </g>
    </g>
    <g id="Group_3738" data-name="Group 3738" transform="translate(237.838 2244.987)">
      <path id="Path_5113-2" data-name="Path 5113" d="M2423.587,6447.991h-83.577v-26.759h-48.076" transform="translate(-2286.27 -6415.634)" fill="none" stroke="#ffafc4" stroke-linecap="round" stroke-width="2"/>
      <g id="Ellipse_180-2" data-name="Ellipse 180" transform="translate(0 0)" fill="#ffafc4" stroke="#800022" stroke-width="1">
        <circle cx="5.39" cy="5.39" r="5.39" stroke="none"/>
        <circle cx="5.39" cy="5.39" r="4.89" fill="none"/>
      </g>
      <g id="Ellipse_174-2" data-name="Ellipse 174" transform="translate(132.055 26.95)" fill="#ffd7e1" stroke="#800022" stroke-width="1">
        <circle cx="5.39" cy="5.39" r="5.39" stroke="none"/>
        <circle cx="5.39" cy="5.39" r="4.89" fill="none"/>
      </g>
    </g>
    <text id="_20_000_000" data-name="20,000,000" transform="translate(181.46 2552.641)" fill="#1e162d" font-size="17" font-family="Poppins-Medium, Poppins" font-weight="500"><tspan x="-93" y="0">20,000,000</tspan></text>
    <text id="CD3D_Holder_Rewards" data-name="CD3D Holder Rewards" transform="translate(175.542 2525.691)" fill="#ff0144" font-size="17" font-family="Poppins-Medium, Poppins" font-weight="500"><tspan x="-185" y="0">CD3D Holder Rewards</tspan></text>
    <g id="Group_3693" data-name="Group 3693" transform="translate(846.356 2140.403)">
      <text id="_10_000_000-2" data-name="10,000,000" transform="translate(0 26.95)" fill="#1e162d" font-size="20" font-family="Poppins-Medium, Poppins" font-weight="500"><tspan x="0" y="21">10,000,000</tspan></text>
      <text id="Sponsor" transform="translate(0 0)" fill="#ff0144" font-size="20" font-family="Poppins-Medium, Poppins" font-weight="500"><tspan x="0" y="21">Sponsor</tspan></text>
    </g>
    <g id="Group_3712" data-name="Group 3712" transform="translate(136.868 2237.801)">
      <text id="_3_000_000" data-name="3,000,000" transform="translate(88 45.95)" fill="#1e162d" font-size="18" font-family="Poppins-Medium, Poppins" font-weight="500"><tspan x="-88" y="0">3,000,000</tspan></text>
      <text id="Team" transform="translate(87.933 19)" fill="#ff0144" font-size="18" font-family="Poppins-Medium, Poppins" font-weight="500"><tspan x="-52" y="0">Team</tspan></text>
    </g>
    <text id="ICO" transform="translate(291.857 2151.651)" fill="#ff0144" font-size="17" font-family="Poppins-Medium, Poppins" font-weight="500"><tspan x="-30" y="0">ICO</tspan></text>
    <text id="Liquidity" transform="translate(937.973 2658.755)" fill="#ff0144" font-size="17" font-family="Poppins-Medium, Poppins" font-weight="500"><tspan x="-71" y="0">Liquidity</tspan></text>
  </g>
</svg>
