<svg width="32" height="32" viewBox="0 0 32 32" fill="none" xmlns="http://www.w3.org/2000/svg">
<g clip-path="url(#clip0_2_4)" filter="url(#filter0_d_2_4)">
<path d="M27.393 11.696C27.393 9.38195 26.7068 7.11988 25.4212 5.19582C24.1356 3.27177 22.3083 1.77215 20.1704 0.886606C18.0325 0.0010609 15.68 -0.230639 13.4104 0.220808C11.1409 0.672255 9.05612 1.78657 7.41985 3.42285C5.78357 5.05912 4.66926 7.14386 4.21781 9.41344C3.76636 11.683 3.99806 14.0355 4.88361 16.1734C5.76915 18.3113 7.26877 20.1386 9.19283 21.4242C11.1169 22.7098 13.379 23.396 15.693 23.396C17.2297 23.3967 18.7514 23.0945 20.1712 22.5067C21.591 21.919 22.881 21.0572 23.9676 19.9706C25.0542 18.884 25.916 17.594 26.5037 16.1742C27.0915 14.7544 27.3937 13.2326 27.393 11.696V11.696ZM13.644 11.696L18.25 16.257C18.4426 16.4627 18.5477 16.7353 18.543 17.0171C18.5384 17.2989 18.4244 17.5678 18.2251 17.7671C18.0258 17.9664 17.7569 18.0804 17.4751 18.085C17.1933 18.0897 16.9207 17.9846 16.715 17.792L11.35 12.41C11.152 12.2126 11.0379 11.9463 11.0316 11.6668C11.0252 11.3873 11.1271 11.1161 11.316 10.91L16.602 5.60999C16.7015 5.50492 16.821 5.42083 16.9535 5.36268C17.086 5.30453 17.2288 5.27349 17.3735 5.27139C17.5181 5.2693 17.6618 5.29619 17.7959 5.35049C17.93 5.40478 18.0519 5.48538 18.1544 5.58753C18.2569 5.68968 18.3379 5.81131 18.3926 5.94525C18.4473 6.0792 18.4747 6.22275 18.4731 6.36743C18.4715 6.51212 18.4409 6.65502 18.3832 6.7877C18.3254 6.92039 18.2417 7.04017 18.137 7.14L13.644 11.696Z" fill="#7689B0"/>
</g>
<defs>
<filter id="filter0_d_2_4" x="0" y="0" width="31.393" height="31.393" filterUnits="userSpaceOnUse" color-interpolation-filters="sRGB">
<feFlood flood-opacity="0" result="BackgroundImageFix"/>
<feColorMatrix in="SourceAlpha" type="matrix" values="0 0 0 0 0 0 0 0 0 0 0 0 0 0 0 0 0 0 127 0" result="hardAlpha"/>
<feOffset dy="4"/>
<feGaussianBlur stdDeviation="2"/>
<feComposite in2="hardAlpha" operator="out"/>
<feColorMatrix type="matrix" values="0 0 0 0 0 0 0 0 0 0 0 0 0 0 0 0 0 0 0.25 0"/>
<feBlend mode="normal" in2="BackgroundImageFix" result="effect1_dropShadow_2_4"/>
<feBlend mode="normal" in="SourceGraphic" in2="effect1_dropShadow_2_4" result="shape"/>
</filter>
<clipPath id="clip0_2_4">
<rect width="23.393" height="23.393" fill="white" transform="translate(27.393 23.393) rotate(-180)"/>
</clipPath>
</defs>
</svg>
